<svg width="413" height="359" viewBox="0 0 413 359" fill="none" xmlns="http://www.w3.org/2000/svg">
<g clip-path="url(#clip0_15_2)">
<path d="M411.46 9.61L211.71 355.6C209.24 359.87 203.08 359.87 200.62 355.6L0.870079 9.61C-1.59992 5.34 1.48008 0 6.41008 0H83.3801C86.8401 0 90.0301 1.84 91.7601 4.84L200.55 193.28C203.02 197.55 209.18 197.55 211.64 193.28L297.07 45.37C298.65 42.64 298 39.17 295.55 37.19L263.69 11.39C259 7.59 261.69 0.01 267.72 0.01H405.9C410.83 0.01 413.91 5.35 411.45 9.62L411.46 9.61Z" fill="white"/>
</g>
<defs>
<clipPath id="clip0_15_2">
<rect width="412.33" height="358.8" fill="white"/>
</clipPath>
</defs>
</svg>
